<svg width="250" height="56" viewBox="0 0 250 56" fill="none" xmlns="http://www.w3.org/2000/svg">
<path d="M41 2H15C7.8203 2 2 7.8203 2 15V41C2 48.1797 7.8203 54 15 54H41C48.1797 54 54 48.1797 54 41V15C54 7.8203 48.1797 2 41 2Z" fill="#1C1C1E"/>
<path d="M13.2781 18.0498H9.82812V21.4998H13.2781V18.0498Z" fill="#F4F4F5"/>
<path d="M13.2781 22.1602H9.82812V25.6102H13.2781V22.1602Z" fill="#F4F4F5"/>
<path d="M13.2781 26.27H9.82812V29.72H13.2781V26.27Z" fill="#F4F4F5"/>
<path d="M13.2781 30.3901H9.82812V33.8401H13.2781V30.3901Z" fill="#F4F4F5"/>
<path d="M13.2781 34.5H9.82812V37.95H13.2781V34.5Z" fill="#F4F4F5"/>
<path d="M17.3914 13.9399H13.9414V17.3899H17.3914V13.9399Z" fill="#F4F4F5"/>
<path d="M17.3914 18.0498H13.9414V21.4998H17.3914V18.0498Z" fill="#F4F4F5"/>
<path d="M17.3914 22.1602H13.9414V25.6102H17.3914V22.1602Z" fill="#F4F4F5"/>
<path d="M17.3914 26.27H13.9414V29.72H17.3914V26.27Z" fill="#F4F4F5"/>
<path d="M17.3914 30.3901H13.9414V33.8401H17.3914V30.3901Z" fill="#F4F4F5"/>
<path d="M17.3914 34.5H13.9414V37.95H17.3914V34.5Z" fill="#F4F4F5"/>
<path d="M17.3914 38.6099H13.9414V42.0599H17.3914V38.6099Z" fill="#F4F4F5"/>
<path d="M21.5008 9.83008H18.0508V13.2801H21.5008V9.83008Z" fill="#F4F4F5"/>
<path d="M21.5008 13.9399H18.0508V17.3899H21.5008V13.9399Z" fill="#F4F4F5"/>
<path d="M21.5008 18.0498H18.0508V21.4998H21.5008V18.0498Z" fill="#F4F4F5"/>
<path d="M21.5008 34.5H18.0508V37.95H21.5008V34.5Z" fill="#F4F4F5"/>
<path d="M21.5008 38.6099H18.0508V42.0599H21.5008V38.6099Z" fill="#F4F4F5"/>
<path d="M21.5008 42.7202H18.0508V46.1702H21.5008V42.7202Z" fill="#F4F4F5"/>
<path d="M25.6102 9.83008H22.1602V13.2801H25.6102V9.83008Z" fill="#F4F4F5"/>
<path d="M25.6102 13.9399H22.1602V17.3899H25.6102V13.9399Z" fill="#F4F4F5"/>
<path d="M25.6102 38.6099H22.1602V42.0599H25.6102V38.6099Z" fill="#F4F4F5"/>
<path d="M25.6102 42.7202H22.1602V46.1702H25.6102V42.7202Z" fill="#F4F4F5"/>
<path d="M29.7195 9.83008H26.2695V13.2801H29.7195V9.83008Z" fill="#F4F4F5"/>
<path d="M29.7195 13.9399H26.2695V17.3899H29.7195V13.9399Z" fill="#F4F4F5"/>
<path d="M29.7195 38.6099H26.2695V42.0599H29.7195V38.6099Z" fill="#F4F4F5"/>
<path d="M29.7195 42.7202H26.2695V46.1702H29.7195V42.7202Z" fill="#F4F4F5"/>
<path d="M33.8406 9.83008H30.3906V13.2801H33.8406V9.83008Z" fill="#F4F4F5"/>
<path d="M33.8406 13.9399H30.3906V17.3899H33.8406V13.9399Z" fill="#F4F4F5"/>
<path d="M33.8406 38.6099H30.3906V42.0599H33.8406V38.6099Z" fill="#F4F4F5"/>
<path d="M33.8406 42.7202H30.3906V46.1702H33.8406V42.7202Z" fill="#F4F4F5"/>
<path d="M37.95 9.83008H34.5V13.2801H37.95V9.83008Z" fill="#FF7A00"/>
<path d="M37.95 13.9399H34.5V17.3899H37.95V13.9399Z" fill="#FF7A00"/>
<path d="M37.95 18.0498H34.5V21.4998H37.95V18.0498Z" fill="#FF7A00"/>
<path d="M37.95 34.5H34.5V37.95H37.95V34.5Z" fill="#F4F4F5"/>
<path d="M37.95 38.6099H34.5V42.0599H37.95V38.6099Z" fill="#F4F4F5"/>
<path d="M37.95 42.7202H34.5V46.1702H37.95V42.7202Z" fill="#F4F4F5"/>
<path d="M42.0594 13.9399H38.6094V17.3899H42.0594V13.9399Z" fill="#FF7A00"/>
<path d="M42.0594 18.0498H38.6094V21.4998H42.0594V18.0498Z" fill="#FF7A00"/>
<path d="M42.0594 22.1602H38.6094V25.6102H42.0594V22.1602Z" fill="#F4F4F5"/>
<path d="M42.0594 26.27H38.6094V29.72H42.0594V26.27Z" fill="#F4F4F5"/>
<path d="M42.0594 30.3901H38.6094V33.8401H42.0594V30.3901Z" fill="#F4F4F5"/>
<path d="M42.0594 34.5H38.6094V37.95H42.0594V34.5Z" fill="#F4F4F5"/>
<path d="M42.0594 38.6099H38.6094V42.0599H42.0594V38.6099Z" fill="#F4F4F5"/>
<path d="M46.1687 18.0498H42.7188V21.4998H46.1687V18.0498Z" fill="#FF7A00"/>
<path d="M46.1687 22.1602H42.7188V25.6102H46.1687V22.1602Z" fill="#F4F4F5"/>
<path d="M46.1687 26.27H42.7188V29.72H46.1687V26.27Z" fill="#F4F4F5"/>
<path d="M46.1687 30.3901H42.7188V33.8401H46.1687V30.3901Z" fill="#F4F4F5"/>
<path d="M46.1687 34.5H42.7188V37.95H46.1687V34.5Z" fill="#F4F4F5"/>
<path d="M83.5568 27.2727C83.5568 29.1761 83.196 30.7955 82.4744 32.1307C81.7585 33.4659 80.7813 34.4858 79.5426 35.1903C78.3097 35.8892 76.9233 36.2386 75.3835 36.2386C73.8324 36.2386 72.4403 35.8864 71.2074 35.1818C69.9744 34.4773 69 33.4574 68.2841 32.1222C67.5682 30.7869 67.2102 29.1705 67.2102 27.2727C67.2102 25.3693 67.5682 23.75 68.2841 22.4148C69 21.0795 69.9744 20.0625 71.2074 19.3636C72.4403 18.6591 73.8324 18.3068 75.3835 18.3068C76.9233 18.3068 78.3097 18.6591 79.5426 19.3636C80.7813 20.0625 81.7585 21.0795 82.4744 22.4148C83.196 23.75 83.5568 25.3693 83.5568 27.2727ZM79.8153 27.2727C79.8153 26.0398 79.6307 25 79.2614 24.1534C78.8977 23.3068 78.3835 22.6648 77.7188 22.2273C77.054 21.7898 76.2756 21.571 75.3835 21.571C74.4915 21.571 73.7131 21.7898 73.0483 22.2273C72.3835 22.6648 71.8665 23.3068 71.4972 24.1534C71.1335 25 70.9517 26.0398 70.9517 27.2727C70.9517 28.5057 71.1335 29.5455 71.4972 30.392C71.8665 31.2386 72.3835 31.8807 73.0483 32.3182C73.7131 32.7557 74.4915 32.9744 75.3835 32.9744C76.2756 32.9744 77.054 32.7557 77.7188 32.3182C78.3835 31.8807 78.8977 31.2386 79.2614 30.392C79.6307 29.5455 79.8153 28.5057 79.8153 27.2727ZM86.2223 40.9091V22.9091H89.8018V25.108H89.9638C90.1229 24.7557 90.353 24.3977 90.6541 24.0341C90.9609 23.6648 91.3587 23.358 91.8473 23.1136C92.3416 22.8636 92.9553 22.7386 93.6882 22.7386C94.6428 22.7386 95.5234 22.9886 96.3303 23.4886C97.1371 23.983 97.782 24.7301 98.2649 25.7301C98.7479 26.7244 98.9893 27.9716 98.9893 29.4716C98.9893 30.9318 98.7536 32.1648 98.282 33.1705C97.8161 34.1705 97.1797 34.929 96.3729 35.446C95.5717 35.9574 94.674 36.2131 93.6797 36.2131C92.9751 36.2131 92.3757 36.0966 91.8814 35.8636C91.3928 35.6307 90.9922 35.3381 90.6797 34.9858C90.3672 34.6278 90.1286 34.267 89.9638 33.9034H89.853V40.9091H86.2223ZM89.7763 29.4545C89.7763 30.233 89.8842 30.9119 90.1001 31.4915C90.3161 32.071 90.6286 32.5227 91.0376 32.8466C91.4467 33.1648 91.9439 33.3239 92.5291 33.3239C93.12 33.3239 93.62 33.1619 94.0291 32.8381C94.4382 32.5085 94.7479 32.054 94.9581 31.4744C95.174 30.8892 95.282 30.2159 95.282 29.4545C95.282 28.6989 95.1768 28.0341 94.9666 27.4602C94.7564 26.8864 94.4467 26.4375 94.0376 26.1136C93.6286 25.7898 93.1257 25.6278 92.5291 25.6278C91.9382 25.6278 91.4382 25.7841 91.0291 26.0966C90.6257 26.4091 90.3161 26.8523 90.1001 27.4261C89.8842 28 89.7763 28.6761 89.7763 29.4545ZM108.373 22.9091V25.6364H100.489V22.9091H108.373ZM102.279 19.7727H105.91V31.9773C105.91 32.3125 105.961 32.5739 106.063 32.7614C106.165 32.9432 106.308 33.071 106.489 33.1449C106.677 33.2187 106.893 33.2557 107.137 33.2557C107.308 33.2557 107.478 33.2415 107.648 33.2131C107.819 33.179 107.95 33.1534 108.04 33.1364L108.612 35.8381C108.43 35.8949 108.174 35.9602 107.844 36.0341C107.515 36.1136 107.114 36.1619 106.643 36.179C105.768 36.2131 105.001 36.0966 104.342 35.8295C103.688 35.5625 103.18 35.1477 102.816 34.5852C102.452 34.0227 102.273 33.3125 102.279 32.4545V19.7727ZM110.738 36V22.9091H114.369V36H110.738ZM112.562 21.2216C112.022 21.2216 111.559 21.0426 111.173 20.6847C110.792 20.321 110.602 19.8864 110.602 19.3807C110.602 18.8807 110.792 18.4517 111.173 18.0938C111.559 17.7301 112.022 17.5483 112.562 17.5483C113.102 17.5483 113.562 17.7301 113.942 18.0938C114.329 18.4517 114.522 18.8807 114.522 19.3807C114.522 19.8864 114.329 20.321 113.942 20.6847C113.562 21.0426 113.102 21.2216 112.562 21.2216ZM117.277 36V22.9091H120.737V25.2188H120.891C121.163 24.4517 121.618 23.8466 122.254 23.4034C122.891 22.9602 123.652 22.7386 124.538 22.7386C125.436 22.7386 126.2 22.9631 126.831 23.4119C127.462 23.8551 127.882 24.4574 128.092 25.2188H128.229C128.496 24.4688 128.979 23.8693 129.678 23.4205C130.382 22.9659 131.214 22.7386 132.175 22.7386C133.396 22.7386 134.388 23.1278 135.149 23.9062C135.916 24.679 136.3 25.7756 136.3 27.196V36H132.678V27.9119C132.678 27.1847 132.484 26.6392 132.098 26.2756C131.712 25.9119 131.229 25.7301 130.649 25.7301C129.99 25.7301 129.476 25.9403 129.107 26.3608C128.737 26.7756 128.553 27.3239 128.553 28.0057V36H125.033V27.8352C125.033 27.1932 124.848 26.6818 124.479 26.3011C124.115 25.9205 123.635 25.7301 123.038 25.7301C122.635 25.7301 122.271 25.8324 121.947 26.0369C121.629 26.2358 121.376 26.517 121.189 26.8807C121.001 27.2386 120.908 27.6591 120.908 28.142V36H117.277ZM139.168 36V22.9091H142.798V36H139.168ZM140.991 21.2216C140.452 21.2216 139.989 21.0426 139.602 20.6847C139.222 20.321 139.031 19.8864 139.031 19.3807C139.031 18.8807 139.222 18.4517 139.602 18.0938C139.989 17.7301 140.452 17.5483 140.991 17.5483C141.531 17.5483 141.991 17.7301 142.372 18.0938C142.759 18.4517 142.952 18.8807 142.952 19.3807C142.952 19.8864 142.759 20.321 142.372 20.6847C141.991 21.0426 141.531 21.2216 140.991 21.2216ZM156.599 26.642L153.275 26.8466C153.218 26.5625 153.096 26.3068 152.908 26.0795C152.721 25.8466 152.474 25.6619 152.167 25.5256C151.866 25.3835 151.505 25.3125 151.085 25.3125C150.522 25.3125 150.048 25.4318 149.661 25.6705C149.275 25.9034 149.082 26.2159 149.082 26.608C149.082 26.9205 149.207 27.1847 149.457 27.4006C149.707 27.6165 150.136 27.7898 150.744 27.9205L153.113 28.3977C154.386 28.6591 155.335 29.0795 155.96 29.6591C156.585 30.2386 156.897 31 156.897 31.9432C156.897 32.8011 156.644 33.554 156.138 34.2017C155.638 34.8494 154.951 35.3551 154.076 35.7188C153.207 36.0767 152.204 36.2557 151.067 36.2557C149.335 36.2557 147.954 35.8949 146.925 35.1733C145.903 34.446 145.303 33.4574 145.127 32.2074L148.698 32.0199C148.806 32.5483 149.067 32.9517 149.482 33.2301C149.897 33.5028 150.428 33.6392 151.076 33.6392C151.712 33.6392 152.224 33.517 152.61 33.2727C153.002 33.0227 153.201 32.7017 153.207 32.3097C153.201 31.9801 153.062 31.7102 152.789 31.5C152.516 31.2841 152.096 31.1193 151.528 31.0057L149.261 30.554C147.982 30.2983 147.031 29.8551 146.406 29.2244C145.786 28.5937 145.477 27.7898 145.477 26.8125C145.477 25.9716 145.704 25.2472 146.158 24.6392C146.619 24.0312 147.263 23.5625 148.093 23.233C148.928 22.9034 149.906 22.7386 151.025 22.7386C152.678 22.7386 153.979 23.0881 154.928 23.7869C155.883 24.4858 156.44 25.4375 156.599 26.642ZM166.146 22.9091V25.6364H158.263V22.9091H166.146ZM160.053 19.7727H163.683V31.9773C163.683 32.3125 163.734 32.5739 163.837 32.7614C163.939 32.9432 164.081 33.071 164.263 33.1449C164.45 33.2187 164.666 33.2557 164.911 33.2557C165.081 33.2557 165.251 33.2415 165.422 33.2131C165.592 33.179 165.723 33.1534 165.814 33.1364L166.385 35.8381C166.203 35.8949 165.947 35.9602 165.618 36.0341C165.288 36.1136 164.888 36.1619 164.416 36.179C163.541 36.2131 162.774 36.0966 162.115 35.8295C161.462 35.5625 160.953 35.1477 160.589 34.5852C160.226 34.0227 160.047 33.3125 160.053 32.4545V19.7727ZM168.511 36V22.9091H172.142V36H168.511ZM170.335 21.2216C169.795 21.2216 169.332 21.0426 168.946 20.6847C168.565 20.321 168.375 19.8864 168.375 19.3807C168.375 18.8807 168.565 18.4517 168.946 18.0938C169.332 17.7301 169.795 17.5483 170.335 17.5483C170.875 17.5483 171.335 17.7301 171.716 18.0938C172.102 18.4517 172.295 18.8807 172.295 19.3807C172.295 19.8864 172.102 20.321 171.716 20.6847C171.335 21.0426 170.875 21.2216 170.335 21.2216ZM180.965 36.2557C179.624 36.2557 178.471 35.9716 177.505 35.4034C176.545 34.8295 175.806 34.0341 175.289 33.017C174.778 32 174.522 30.8295 174.522 29.5057C174.522 28.1648 174.781 26.9886 175.298 25.9773C175.82 24.9602 176.562 24.1676 177.522 23.5994C178.482 23.0256 179.624 22.7386 180.948 22.7386C182.09 22.7386 183.09 22.946 183.948 23.3608C184.806 23.7756 185.485 24.358 185.985 25.108C186.485 25.858 186.761 26.7386 186.812 27.75H183.386C183.289 27.0966 183.033 26.571 182.619 26.1733C182.21 25.7699 181.673 25.5682 181.008 25.5682C180.445 25.5682 179.954 25.7216 179.533 26.0284C179.119 26.3295 178.795 26.7699 178.562 27.3494C178.329 27.929 178.212 28.6307 178.212 29.4545C178.212 30.2898 178.326 31 178.553 31.5852C178.786 32.1705 179.113 32.6165 179.533 32.9233C179.954 33.2301 180.445 33.3835 181.008 33.3835C181.423 33.3835 181.795 33.2983 182.124 33.1278C182.46 32.9574 182.735 32.7102 182.951 32.3864C183.173 32.0568 183.317 31.6619 183.386 31.2017H186.812C186.755 32.2017 186.482 33.0824 185.994 33.8438C185.511 34.5994 184.843 35.1903 183.991 35.6165C183.138 36.0426 182.13 36.2557 180.965 36.2557Z" fill="#F4F4F5"/>
</svg>
