<svg xmlns="http://www.w3.org/2000/svg" viewBox="0 0 56 56"><rect x="2" y="2" width="52" height="52" rx="13" fill="#1c1c1e"/><rect x="9.83" y="18.05" width="3.45" height="3.45" fill="#f4f4f5"/><rect x="9.83" y="22.16" width="3.45" height="3.45" fill="#f4f4f5"/><rect x="9.83" y="26.27" width="3.45" height="3.45" fill="#f4f4f5"/><rect x="9.83" y="30.39" width="3.45" height="3.45" fill="#f4f4f5"/><rect x="9.83" y="34.5" width="3.45" height="3.45" fill="#f4f4f5"/><rect x="13.94" y="13.94" width="3.45" height="3.45" fill="#f4f4f5"/><rect x="13.94" y="18.05" width="3.45" height="3.45" fill="#f4f4f5"/><rect x="13.94" y="22.16" width="3.45" height="3.45" fill="#f4f4f5"/><rect x="13.94" y="26.27" width="3.45" height="3.45" fill="#f4f4f5"/><rect x="13.94" y="30.39" width="3.45" height="3.45" fill="#f4f4f5"/><rect x="13.94" y="34.5" width="3.45" height="3.45" fill="#f4f4f5"/><rect x="13.94" y="38.61" width="3.45" height="3.45" fill="#f4f4f5"/><rect x="18.05" y="9.83" width="3.45" height="3.45" fill="#f4f4f5"/><rect x="18.05" y="13.94" width="3.45" height="3.45" fill="#f4f4f5"/><rect x="18.05" y="18.05" width="3.45" height="3.45" fill="#f4f4f5"/><rect x="18.05" y="34.5" width="3.45" height="3.45" fill="#f4f4f5"/><rect x="18.05" y="38.61" width="3.45" height="3.45" fill="#f4f4f5"/><rect x="18.05" y="42.72" width="3.45" height="3.45" fill="#f4f4f5"/><rect x="22.16" y="9.83" width="3.45" height="3.45" fill="#f4f4f5"/><rect x="22.16" y="13.94" width="3.45" height="3.45" fill="#f4f4f5"/><rect x="22.16" y="38.61" width="3.45" height="3.45" fill="#f4f4f5"/><rect x="22.16" y="42.72" width="3.45" height="3.45" fill="#f4f4f5"/><rect x="26.27" y="9.83" width="3.45" height="3.45" fill="#f4f4f5"/><rect x="26.27" y="13.94" width="3.45" height="3.45" fill="#f4f4f5"/><rect x="26.27" y="38.61" width="3.45" height="3.45" fill="#f4f4f5"/><rect x="26.27" y="42.72" width="3.45" height="3.45" fill="#f4f4f5"/><rect x="30.39" y="9.83" width="3.45" height="3.45" fill="#f4f4f5"/><rect x="30.39" y="13.94" width="3.45" height="3.45" fill="#f4f4f5"/><rect x="30.39" y="38.61" width="3.45" height="3.45" fill="#f4f4f5"/><rect x="30.39" y="42.72" width="3.45" height="3.45" fill="#f4f4f5"/><rect x="34.5" y="9.83" width="3.45" height="3.45" fill="#f4f4f5"/><rect x="34.5" y="13.94" width="3.45" height="3.45" fill="#f4f4f5"/><rect x="34.5" y="18.05" width="3.45" height="3.45" fill="#ff7a00"/><rect x="34.5" y="34.5" width="3.45" height="3.45" fill="#f4f4f5"/><rect x="34.5" y="38.61" width="3.45" height="3.45" fill="#f4f4f5"/><rect x="34.5" y="42.72" width="3.45" height="3.45" fill="#f4f4f5"/><rect x="38.61" y="13.94" width="3.45" height="3.45" fill="#f4f4f5"/><rect x="38.61" y="18.05" width="3.45" height="3.45" fill="#f4f4f5"/><rect x="38.61" y="22.16" width="3.45" height="3.45" fill="#f4f4f5"/><rect x="38.61" y="26.27" width="3.45" height="3.45" fill="#f4f4f5"/><rect x="38.61" y="30.39" width="3.45" height="3.45" fill="#f4f4f5"/><rect x="38.61" y="34.5" width="3.45" height="3.45" fill="#f4f4f5"/><rect x="38.61" y="38.61" width="3.45" height="3.45" fill="#f4f4f5"/><rect x="42.72" y="18.05" width="3.45" height="3.45" fill="#f4f4f5"/><rect x="42.72" y="22.16" width="3.45" height="3.45" fill="#f4f4f5"/><rect x="42.72" y="26.27" width="3.45" height="3.45" fill="#f4f4f5"/><rect x="42.72" y="30.39" width="3.45" height="3.45" fill="#f4f4f5"/><rect x="42.72" y="34.5" width="3.45" height="3.45" fill="#f4f4f5"/></svg>